# xmcd CD database file
# Copyright (C) 1993-1998 Ti Kan
#
# Track frame offsets:
#	150
#	14855
#	33819
#	55477
#	94965
#	117262
#	131578
#	156495
#	175985
#	192359
#	205180
#	224581
#	242100
#
# Disc length: 3446 seconds
#
# Revision: 1
# Processed by: cddbd v1.4b41PL1 Copyright (c) Steve Scherf et al.
# Submitted via: xmcd 2.2 PL1
#
DISCID=c70d740d
DTITLE=Mick Martin and the Blues Rockers - Blue Plate Special
DYEAR=1900
DGENRE=
TTITLE0=She Must Be Crazy
TTITLE1=There's the Door
TTITLE2=What's Goin' On
TTITLE3=The Way You Used To Be
TTITLE4=High Heel Baby
TTITLE5=I Left My Blues in Chicago
TTITLE6=Voodoo Queen
TTITLE7=Boogie All Night Long
TTITLE8=Watch What Your're Doin'
TTITLE9=Somebody Else
TTITLE10=Special Delivery Man
TTITLE11=Find That Girl Got to Move
TTITLE12=Got to Move
EXTD=
EXTT0=
EXTT1=
EXTT2=
EXTT3=
EXTT4=
EXTT5=
EXTT6=
EXTT7=
EXTT8=
EXTT9=
EXTT10=
EXTT11=
EXTT12=
PLAYORDER=
